<svg xmlns="http://www.w3.org/2000/svg" width="104" height="104" viewBox="0 0 104 104">
  <g id="confirm-icon" transform="translate(-252 -1484)">
    <circle id="Ellipse_1" data-name="Ellipse 1" cx="52" cy="52" r="52" transform="translate(252 1484)" fill="#fff"/>
    <path id="ic_confirmation_number_24px" d="M50,18.4V8.8A4.8,4.8,0,0,0,45.2,4H6.8A4.778,4.778,0,0,0,2.024,8.8v9.6A4.8,4.8,0,0,1,2,28v9.6a4.814,4.814,0,0,0,4.8,4.8H45.2A4.814,4.814,0,0,0,50,37.6V28a4.8,4.8,0,1,1,0-9.6Zm-21.6,18H23.6V31.6h4.8Zm0-10.8H23.6V20.8h4.8Zm0-10.8H23.6V10h4.8Z" transform="translate(278 1513)" fill="#1b00a7"/>
  </g>
</svg>
